<svg width="20" height="20" viewBox="0 0 20 20" fill="none" xmlns="http://www.w3.org/2000/svg">
<path d="M1.85316 17.9459L18.6814 10.5323C18.7782 10.4787 18.8586 10.4011 18.9146 10.3075C18.9705 10.2138 19 10.1073 19 9.99897C19 9.8906 18.9705 9.78416 18.9146 9.69048C18.8586 9.5968 18.7782 9.51923 18.6814 9.46566L1.85316 2.052C1.75579 2.00912 1.64845 1.9923 1.54218 2.00325C1.43592 2.01421 1.33457 2.05255 1.24858 2.11433C1.16259 2.17611 1.09506 2.2591 1.05296 2.35474C1.01084 2.45039 0.995674 2.55523 1.009 2.65848L1.77217 8.57347L2.09705 8.85304L12.46 9.61027C12.5605 9.61831 12.6541 9.66284 12.7224 9.73501C12.7906 9.80719 12.8285 9.90172 12.8285 9.99984C12.8285 10.098 12.7906 10.1925 12.7224 10.2647C12.6541 10.3368 12.5605 10.3814 12.46 10.3894L2.11055 11.1466L1.76227 11.4341L1.0045 17.3421C1.00141 17.3662 0.999905 17.3905 1 17.4148C1.00005 17.5127 1.02531 17.6091 1.07347 17.695C1.12162 17.7809 1.19114 17.8537 1.27566 17.9067C1.36017 17.9598 1.45699 17.9913 1.55725 17.9984C1.65751 18.0056 1.75801 17.9881 1.84956 17.9477L1.85316 17.9459Z" fill="black" fill-opacity="0.3"/>
</svg>
